<svg width="401" height="601" viewBox="0 0 401 601" fill="none" xmlns="http://www.w3.org/2000/svg">
<path d="M217.5 0.946026C217.557 0.868784 217.614 0.791966 217.672 0.715576H217.328C217.386 0.791966 217.443 0.868784 217.5 0.946026Z" fill="black"/>
<path fill-rule="evenodd" clip-rule="evenodd" d="M278.927 0.715576H258.355V0.788574H233.619C226.991 0.788574 221.619 6.16116 221.619 12.7886V91.0955H221.381V99.0955H181.024C147.422 99.0955 120.181 126.336 120.181 159.938H112.181C112.181 121.917 143.003 91.0955 181.024 91.0955H213.381V12.7886C213.381 6.16116 208.009 0.788574 201.381 0.788574H176.645V0.715576H109.41V0.788574H84.6732C78.0458 0.788574 72.6732 6.16116 72.6732 12.7886V91.0955H64.4362V12.7886C64.4362 6.16116 59.0636 0.788574 52.4362 0.788574H37.6202C16.6635 2.04784 0.0568848 19.4421 0.0568848 40.7149L0.0568889 134.504C0.0760623 138.544 0.188919 144.299 0.318261 150.894C0.515564 160.956 0.751228 172.974 0.751228 183.843C0.751228 194.387 8.00868 201.213 15.1451 204.906C25.3429 201.626 37.1029 199.373 49.4777 199.674C71.5267 200.21 95.3285 208.865 115.347 233.716L109.117 238.735C90.6765 215.843 69.1479 208.155 49.2832 207.672C30.3798 207.212 12.8075 213.288 0.809578 219.48C1.55567 248.31 15.8209 264.328 32.1519 273.045C49.257 282.175 68.7077 283.294 77.5241 281.926L78.7508 289.831C71.996 290.879 60.6164 290.686 48.3074 287.644C14.9513 313.169 0.0830803 350.482 0.0830803 391.075C0.0830803 421.842 5.18202 486.77 46.3102 486.77C41.1003 486.77 98.1682 486.858 112.181 486.858V494.858H11.9281C5.90011 494.858 0.910224 499.303 0.0569052 505.094L0.0569077 560.716C0.0569077 582.807 17.9655 600.716 40.0569 600.716H360.057C382.148 600.716 400.057 582.807 400.057 560.716V480.717C400.057 458.626 382.148 440.718 360.057 440.718H204.174V440.713H190.057C173.488 440.713 160.057 427.282 160.057 410.714C160.057 394.145 173.488 380.714 190.057 380.714H280.057C293.646 380.714 305.652 373.938 312.881 363.58C313.665 361.751 314.311 360.034 314.782 358.412C315.729 355.154 315.858 352.659 315.277 350.662C314.729 348.775 313.396 346.811 310.316 344.868C301.945 339.587 290.446 331.077 279.926 320.863C269.466 310.709 259.64 298.552 255.075 285.943C248.953 269.036 241.287 252.594 231.226 240.434C221.23 228.352 209.122 220.771 193.913 220.771V220.712H190.057C173.488 220.712 160.057 207.281 160.057 190.713C160.057 174.144 173.488 160.713 190.057 160.713H360.057C382.148 160.713 400.057 142.805 400.057 120.714V40.7149C400.057 18.8178 382.461 1.0302 360.638 0.719704V0.788574H335.901C329.273 0.788574 323.901 6.16116 323.901 12.7886V91.0955H315.664V12.7886C315.664 6.16116 310.291 0.788574 303.664 0.788574H278.927V0.715576ZM181.478 563.153C181.478 552.107 172.524 543.153 161.478 543.153H50.4996V551.153H161.478C168.105 551.153 173.478 556.526 173.478 563.153V600.715H181.478V563.153ZM256.77 506.858C256.77 495.812 265.724 486.858 276.77 486.858H301.507V494.858H276.77C270.142 494.858 264.77 500.231 264.77 506.858V543.153H348.478V551.153H237.5C230.873 551.153 225.5 556.526 225.5 563.153V600.715H217.5V563.153C217.5 552.107 226.454 543.153 237.5 543.153H256.77V506.858ZM225.838 309.926C206.283 259.986 185.182 258.675 137.88 259.361C137.101 259.373 136.606 260.229 136.993 260.905C138.562 263.638 140.239 267.084 142.09 270.887C149.972 287.084 160.997 309.74 180.149 311.238C184.483 311.577 190.106 311.045 196.043 310.484C206.087 309.534 217.03 308.5 224.161 311.448C225.072 311.825 226.197 310.843 225.838 309.926Z" fill="black"/>
<path d="M68.7268 0.715576H68.3825C68.4405 0.791966 68.4978 0.868784 68.5547 0.946026C68.6115 0.868784 68.6689 0.791966 68.7268 0.715576Z" fill="black"/>
<path d="M319.782 0.946026C319.725 0.868784 319.668 0.791966 319.61 0.715576H319.954C319.896 0.791966 319.839 0.868784 319.782 0.946026Z" fill="black"/>
</svg>
